Coordinates
version=1
nRows=12
nColumns=28
inDegrees=yes

Units are S.I. units (second, meters, Newtons, ...)
Angles are in degrees.

endheader
time	pelvis_tilt	pelvis_list	pelvis_rotation	pelvis_tx	pelvis_ty	pelvis_tz	hip_flexion_r	hip_adduction_r	hip_rotation_r	knee_angle_r	ankle_angle_r	subtalar_angle_r	mtp_angle_r	hip_flexion_l	hip_adduction_l	hip_rotation_l	knee_angle_l	socket_flexion	socket_adduction	socket_rotation	socket_tx	socket_ty	socket_tz	foot_flex	lumbar_extension	lumbar_bending	lumbar_rotation
      0.93750000	      3.78337097	     -4.58360584	     -1.63674743	      0.41852816	      1.03621720	      0.30471605	     -0.29085613	      9.31286039	     -1.41381871	    -14.27629899	     10.41115698	    -10.31322834	      2.32793755	     12.06892744	     -9.24943147	     -1.73479178	    -69.25727645	     -9.52565836	     -1.71317830	     14.78234161	      0.00000000	      0.03161402	      0.00000000	     -0.37787770	    -11.28824229	      4.44054133	      4.10589924
      0.94166667	      3.72281533	     -4.35784008	     -1.98209006	      0.42316382	      1.03696721	      0.30530034	     -0.61631453	      9.02774722	     -1.36609010	    -14.10934563	     10.36720198	     -9.87337234	      2.47782476	     12.60190691	     -8.97196889	     -1.82892840	    -68.79244753	     -9.51213702	     -1.64420374	     14.72503449	      0.00000000	      0.03153075	      0.00000000	     -0.36648013	    -11.26285312	      4.08593834	      4.71891661
      0.94583333	      3.70208756	     -4.23183988	     -2.17073611	      0.42777694	      1.03769100	      0.30569113	     -1.07556767	      8.87365474	     -1.27480900	    -13.75384372	     10.40471090	     -9.67966861	      2.52076210	     13.20229867	     -8.80299937	     -1.80026130	    -68.48369606	     -9.58161758	     -1.64993218	     14.73733370	      0.00000000	      0.03178966	      0.00000000	     -0.37298901	    -11.27679612	      3.91967018	      4.79844516
      0.95000000	      3.71613363	     -4.21943831	     -2.41108098	      0.43205497	      1.03829168	      0.30603164	     -1.39143767	      8.81573581	     -1.33375519	    -13.72421987	     10.40872865	     -9.65047813	      2.52557600	     13.74848275	     -8.76118868	     -1.79676815	    -68.14558244	     -9.66338999	     -1.65641683	     14.72986350	      0.00000000	      0.03175718	      0.00000000	     -0.34053873	    -11.41252383	      3.90786992	      4.81960323
      0.95416667	      3.64318244	     -3.97503836	     -2.54283942	      0.43693520	      1.03899841	      0.30642633	     -1.94671742	      8.55268438	     -1.11670682	    -13.06565111	     10.32990681	     -9.27860123	      2.55955759	     14.40374740	     -8.46522072	     -1.76316980	    -67.76755913	     -9.70822421	     -1.67399371	     14.73801632	      0.00000000	      0.03242040	      0.00000000	     -0.36128864	    -11.30092596	      3.56922445	      5.04597043
      0.95833333	      3.59331336	     -3.81828705	     -2.76891782	      0.44156631	      1.03960306	      0.30683023	     -2.35039114	      8.34939720	     -1.04142561	    -12.73707889	     10.22401681	     -9.02210842	      2.60485160	     14.93674087	     -8.25507297	     -1.76078199	    -67.22355500	     -9.70972421	     -1.64317156	     14.69177469	      0.00000000	      0.03240074	      0.00000000	     -0.34728468	    -11.27444826	      3.34606467	      5.29739705
      0.96250000	      3.55770585	     -3.69778637	     -2.97158277	      0.44612498	      1.04013426	      0.30723753	     -2.75189534	      8.19349429	     -0.96244249	    -12.43878078	     10.19801623	     -8.81387017	      2.65934719	     15.46252527	     -8.09145717	     -1.73742881	    -66.68479559	     -9.73237638	     -1.62511272	     14.65870680	      0.00000000	      0.03234569	      0.00000000	     -0.34813867	    -11.27980374	      3.16548624	      5.49164531
      0.96666667	      3.57629549	     -3.69866024	     -3.19272922	      0.45030213	      1.04056516	      0.30751935	     -3.05134652	      8.14028853	     -1.01667204	    -12.43426405	     10.20178827	     -8.79034192	      2.66665518	     16.00349933	     -8.06642341	     -1.72881944	    -66.29279236	     -9.83453552	     -1.66198484	     14.63914913	      0.00000000	      0.03249691	      0.00000000	     -0.31288433	    -11.42084984	      3.15771627	      5.51810090
      0.97083333	      3.47326068	     -3.51065626	     -3.35444398	      0.45520018	      1.04102141	      0.30788815	     -3.54103573	      7.92241292	     -0.83355650	    -11.82915074	     10.14081243	     -8.44730890	      2.72501545	     16.54892444	     -7.82892471	     -1.70206604	    -65.63022313	     -9.82142083	     -1.64352053	     14.63188928	      0.00000000	      0.03250549	      0.00000000	     -0.33139101	    -11.27945773	      2.90288027	      5.78436473
      0.97500000	      3.49298652	     -3.51959096	     -3.55025060	      0.45934326	      1.04135604	      0.30817912	     -3.82948355	      7.88374071	     -0.88023422	    -11.84736751	     10.13925010	     -8.42631557	      2.73136687	     17.08430848	     -7.81863772	     -1.68973978	    -65.20975497	     -9.93660378	     -1.71326546	     14.59752139	      0.00000000	      0.03271298	      0.00000000	     -0.29256801	    -11.42306815	      2.88597001	      5.80850265
      0.97916667	      3.35933037	     -3.35203690	     -3.70117676	      0.46434965	      1.04169865	      0.30852698	     -4.31278215	      7.68748064	     -0.67798743	    -11.19532993	     10.06295739	     -8.06030569	      2.79767149	     17.56964272	     -7.60234263	     -1.65921106	    -64.35310951	     -9.86250784	     -1.69630468	     14.59369959	      0.00000000	      0.03232529	      0.00000000	     -0.31193654	    -11.22621531	      2.64250381	      6.10637313
      0.98333333	      3.37901991	     -3.36427288	     -3.89291300	      0.46845246	      1.04193710	      0.30879029	     -4.59317743	      7.64600292	     -0.72790044	    -11.22293450	     10.06099305	     -8.04551187	      2.80403864	     18.10129531	     -7.59979952	     -1.65074703	    -63.91433712	     -9.99092074	     -1.76752373	     14.55702837	      0.00000000	      0.03262326	      0.00000000	     -0.27042450	    -11.37894976	      2.63701819	      6.12957638
